<svg xmlns="http://www.w3.org/2000/svg" width="90" height="90" viewBox="0 0 90 90">
  <defs>
    <style>
      .cls-1 {
        fill: #666463;
      }

      .cls-2 {
        fill: #dad7d5;
      }

      .cls-3 {
        fill: #ffcc04;
      }

      .cls-4 {
        fill: #fae18a;
      }

      .cls-5 {
        fill: #ffeeb6;
      }

      .cls-6 {
        opacity: 0.5;
      }

      .cls-7 {
        fill: #fbd156;
      }

      .cls-8 {
        fill: #bdbcb8;
      }
    </style>
  </defs>
  <g id="Layer_1" data-name="Layer 1">
    <g>
      <path class="cls-1" d="M36.25,80.43l2.19,5.27a7.15,7.15,0,0,0,13.11,0l2.2-5.27Z"/>
      <path class="cls-2" d="M36,63H54a0,0,0,0,1,0,0V83a1.51,1.51,0,0,1-1.51,1.51H37.54A1.51,1.51,0,0,1,36,83V63A0,0,0,0,1,36,63Z"/>
      <g>
        <path class="cls-3" d="M45,16.89A20.7,20.7,0,0,0,24.31,37.58C24.31,49,36,53.57,36,63H54c0-9.44,11.72-14,11.72-25.43A20.69,20.69,0,0,0,45,16.89Z"/>
        <path class="cls-4" d="M45,18.89A18.71,18.71,0,0,1,63.69,37.58c0,5.3-2.84,8.92-5.86,12.77-2.49,3.18-5.07,6.47-5.71,10.66H37.88c-.64-4.19-3.21-7.48-5.71-10.66-3-3.85-5.86-7.47-5.86-12.77A18.71,18.71,0,0,1,45,18.89"/>
      </g>
      <circle class="cls-5" cx="45" cy="37.58" r="9.09"/>
      <g class="cls-6">
        <path class="cls-7" d="M33.06,51.5c2.19,2.84,4.26,5.82,4.82,9.51H52.12c.57-3.7,2.63-6.69,4.83-9.53a18.29,18.29,0,0,1-23.89,0Z"/>
      </g>
      <path class="cls-8" d="M55.64,68.22,35,65.88a2.88,2.88,0,1,0-.64,5.72L55,73.93a2.87,2.87,0,1,0,.64-5.71Z"/>
      <path class="cls-8" d="M55.64,77.23,35,74.9a2.87,2.87,0,1,0-.64,5.71L55,83a2.88,2.88,0,1,0,.64-5.72Z"/>
      <rect class="cls-3" x="42.79" y="-0.01" width="4.42" height="10.33"/>
      <rect class="cls-3" x="56.14" y="7.34" width="10.34" height="4.44" transform="translate(22.2 57.73) rotate(-59.79)"/>
      <polygon class="cls-3" points="76.49 16.92 67.52 22.07 69.73 25.92 78.7 20.77 76.49 16.92"/>
      <rect class="cls-3" x="26.48" y="4.39" width="4.43" height="10.34" transform="translate(-0.91 15.73) rotate(-30.2)"/>
      <polygon class="cls-3" points="11.3 20.77 20.27 25.92 22.48 22.07 13.51 16.92 11.3 20.77"/>
    </g>
  </g>
</svg>
